<svg width="65" height="65" viewBox="0 0 65 65" fill="none" xmlns="http://www.w3.org/2000/svg">
<path d="M9.92432 14.8824C9.76117 15.3524 9.75337 15.8418 9.72477 16.3163C9.60452 18.3138 9.80017 20.2703 10.5451 22.1514C11.3992 24.3074 12.809 26.0163 14.6732 27.3702C16.581 28.756 18.737 29.5854 20.973 30.2673C23.1837 30.9413 25.2156 31.9599 26.8906 33.6037C28.5683 35.2502 29.5069 37.2652 29.8923 39.559C30.0444 40.4644 30.1055 41.3783 30.1075 42.2968C30.1075 42.4066 30.1094 42.5185 30.0919 42.6257C30.0327 42.9858 29.7591 43.2159 29.4373 43.1873C29.1247 43.1593 28.9102 42.9202 28.9089 42.5497C28.9069 41.7787 28.8621 41.0117 28.7743 40.246C28.3752 36.7666 26.5767 34.2518 23.5171 32.6034C22.2828 31.9384 20.9607 31.5062 19.6288 31.0869C16.7929 30.1951 14.1961 28.8776 12.1018 26.7053C10.1986 24.7306 9.07022 22.3704 8.66787 19.669C8.32792 17.3901 8.48327 15.1346 9.11702 12.9155C9.13067 12.8687 9.14757 12.8226 9.15992 12.7751C9.24052 12.4547 9.43682 12.2447 9.77157 12.2415C10.0797 12.2382 10.2532 12.4521 10.3488 12.7251C10.6133 13.4771 10.9624 14.1908 11.3309 14.8954C11.4954 15.2094 11.6709 15.5175 11.8431 15.8275C12.2377 16.5399 12.9319 16.8233 13.6488 17.0508C14.9625 17.4675 16.3249 17.6098 17.6912 17.7164C19.777 17.8802 21.8681 17.8464 23.9578 17.8789C25.5776 17.9036 27.033 18.5224 28.4142 19.3174C29.659 20.0343 30.7939 20.9021 31.8339 21.894C31.9489 22.0038 32.0828 22.0942 32.1888 22.2112C32.3532 22.3932 32.4754 22.3568 32.6412 22.1982C33.7039 21.1816 34.8388 20.2566 36.0985 19.4896C37.8139 18.4451 39.6326 17.7951 41.6814 17.8614C43.5508 17.9218 45.4221 17.8568 47.287 17.708C48.676 17.5968 50.0592 17.4317 51.3911 16.9767C52.1919 16.7037 52.7918 16.2422 53.1831 15.4635C53.6446 14.5457 54.1367 13.6442 54.4708 12.6692C54.565 12.3942 54.7581 12.2369 55.0441 12.2395C55.3535 12.2421 55.5296 12.4462 55.6232 12.7212C55.9274 13.6169 56.0964 14.5444 56.203 15.4798C56.4428 17.5799 56.3161 19.6547 55.6797 21.6821C54.6398 24.9951 52.5103 27.4222 49.5581 29.1714C47.9487 30.1249 46.2177 30.7879 44.4309 31.3248C42.5537 31.889 40.7915 32.6859 39.2783 33.9677C37.4044 35.555 36.4008 37.6045 36.0608 40.0069C35.9497 40.794 35.8938 41.5863 35.912 42.3826C35.9139 42.4677 35.9152 42.5548 35.9048 42.6394C35.8652 42.9643 35.6279 43.188 35.3237 43.1925C35 43.1977 34.7316 42.9728 34.7231 42.6251C34.6471 39.4472 35.2938 36.4995 37.4882 34.0529C38.9546 32.4175 40.8039 31.3755 42.8306 30.6105C44.2027 30.0924 45.6366 29.7557 46.9815 29.1545C49.5678 27.9981 51.8136 26.4264 53.3424 23.9792C54.3453 22.3743 54.8848 20.6141 55.0571 18.7298C55.1637 17.5656 55.1168 16.4112 54.9719 15.2568C54.9569 15.1372 54.9687 15.0105 54.8478 14.872C54.6651 15.1996 54.4649 15.5006 54.3219 15.8269C53.757 17.1178 52.7275 17.825 51.421 18.2117C50.041 18.6206 48.6227 18.7896 47.1953 18.9007C45.1095 19.0632 43.0184 19.0327 40.9287 19.0613C39.433 19.0821 38.0986 19.671 36.8356 20.4282C35.4108 21.2823 34.1453 22.3353 32.9922 23.5274C32.5385 23.9961 32.2843 23.998 31.8293 23.5333C30.452 22.1273 28.9394 20.8975 27.1812 19.9921C26.0586 19.4142 24.8795 19.0411 23.5997 19.0496C21.9123 19.0613 20.2249 19.0697 18.5401 18.9657C16.8319 18.8598 15.1269 18.7187 13.4714 18.2332C12.2013 17.8607 11.1359 17.2393 10.5678 15.9673C10.4437 15.6891 10.2831 15.4265 10.1343 15.16C10.0836 15.067 10.0686 14.9461 9.92432 14.8824Z" fill="#1C1D28"/>
<path d="M41.4534 44.094C41.4541 42.3085 41.4528 40.5236 41.4547 38.738C41.4554 38.1329 41.638 37.9554 42.2471 37.9574C45.6446 37.9678 48.7497 40.6659 49.2664 44.0583C49.8872 48.1325 47.306 51.751 43.2461 52.4979C39.2194 53.2382 35.1796 50.2086 34.774 46.1428C34.7513 45.9121 34.7188 45.6813 34.7168 45.4499C34.7129 44.9754 34.9482 44.6764 35.3083 44.6719C35.6821 44.6667 35.9011 44.9403 35.9141 45.4285C35.9869 48.1318 37.8791 50.5141 40.4888 51.1868C44.0749 52.1118 47.6369 49.7113 48.1237 46.0401C48.5495 42.8291 46.2303 39.7104 43.0791 39.2242C42.6923 39.1644 42.6527 39.2957 42.6533 39.6136C42.6611 42.8174 42.6585 46.0213 42.6592 49.2245C42.6592 49.359 42.665 49.4942 42.654 49.6281C42.6202 50.0305 42.3868 50.2599 42.0287 50.2515C41.6601 50.243 41.4567 50.0233 41.4554 49.5956C41.4508 47.7626 41.4528 45.9283 41.4534 44.094Z" fill="#1C1D28"/>
<path d="M16.0288 48.2657C15.7837 48.6798 15.5764 49.1055 15.2995 49.4916C13.5055 51.9967 10.4323 53.1277 7.46956 52.3646C4.54521 51.6113 2.38396 49.1081 2.04011 46.074C2.01281 45.8315 1.98421 45.5871 1.98876 45.344C1.99656 44.9534 2.25006 44.6778 2.57506 44.6713C2.92996 44.6641 3.16071 44.9241 3.18346 45.3492C3.30696 47.7061 4.36971 49.4942 6.43216 50.6616C9.95321 52.6539 14.6638 50.3971 15.3333 46.4061C15.3879 46.0792 15.41 45.7516 15.4262 45.422C15.4496 44.9482 15.6609 44.6914 16.0197 44.6771C16.3811 44.6628 16.6183 44.8871 16.6437 45.3817C16.6905 46.2852 16.8673 47.1491 17.2709 47.9622C18.5137 50.4666 21.0916 51.5976 23.3848 51.3604C26.1194 51.0776 28.3573 49.0028 28.8156 46.23C28.863 45.9414 28.8845 45.6476 28.9027 45.3551C28.9293 44.9261 29.149 44.6687 29.5052 44.6706C29.8426 44.6726 30.1136 44.9657 30.1019 45.3726C30.0792 46.1578 29.9531 46.928 29.6905 47.6723C28.5829 50.8072 25.5721 52.8365 22.2597 52.5752C19.5784 52.3633 17.5764 51.0178 16.2725 48.6538C16.203 48.529 16.1718 48.3788 16.0288 48.2657Z" fill="#1C1D28"/>
<path d="M55.3221 52.6C53.2934 52.5278 51.2986 51.5704 49.8127 49.6035C49.6762 49.4228 49.5709 49.2349 49.6066 48.9977C49.643 48.7585 49.773 48.5973 50.0064 48.5219C50.2917 48.4296 50.516 48.5342 50.6824 48.7572C51.034 49.2297 51.413 49.675 51.8842 50.0338C53.7426 51.4488 55.7907 51.8161 57.9604 50.947C60.2101 50.0461 61.4854 48.3236 61.7993 45.9089C61.826 45.7035 61.8416 45.4961 61.8572 45.2894C61.8851 44.9176 62.1165 44.6739 62.4493 44.6706C62.762 44.6674 63.0369 44.928 63.0493 45.292C63.0649 45.7685 62.9979 46.243 62.9063 46.7103C62.2355 50.1079 59.2078 52.5935 55.3221 52.6Z" fill="#1C1D28"/>
</svg>
